Please Seed back to make the speed Faster!!
 ............ NFO .............
-The.Amazing.Race.S21E05.720p.HDTV.X264-DIMENSION
Airdate: Sunday October 28th, 2012

The Amazing Race: Chill Out, Freak: Leg 5 - Dhaka, Bangladesh ΓåÆ Bangladesh

 The race continues in Dhaka, Bangladesh. Dehydration threatens one team, while another pair receive sad news from home.

Format                           : Matroska
Format version                   : Version 2
File size                        : 2.03 GiB
Duration                         : 43mn 26s
Overall bit rate                 : 6 694 Kbps
Encoded date                     : UTC 2012-10-28 12:59:45
Writing application              : mkvmerge v3.0.0 ('Hang up your Hang-Ups') built on Apr 19 2010 11:58:49
Writing library                  : libebml v0.7.7 + libmatroska v0.8.1

Video
ID                               : 1
Format                           : AVC
Format/Info                      : Advanced Video Codec
Format profile                   : High@L4.1
Format settings, CABAC           : Yes
Format settings, ReFrames        : 9 frames
Codec ID                         : V_MPEG4/ISO/AVC
Duration                         : 43mn 26s
Bit rate                         : 6 176 Kbps
Width                            : 1 280 pixels
Height                           : 720 pixels
Display aspect ratio             : 16:9
Frame rate                       : 59.940 fps
Color space                      : YUV
Chroma subsampling               : 4:2:0
Bit depth                        : 8 bits
Scan type                        : Progressive
Bits/(Pixel*Frame)               : 0.112
Stream size                      : 1.87 GiB (92%)
Writing library                  : x264 core 128 r2216 198a7ea
Encoding settings                : cabac=1 / ref=9 / deblock=1:2:2 / analyse=0x3:0x133 / me=umh / subme=10 / psy=1 / psy_rd=1.00:0.00 / mixed_ref=1 / me_range=28 / chroma_me=1 / trellis=2 / 8x8dct=1 / cqm=0 / deadzone=21,11 / fast_pskip=0 / chroma_qp_offset=-2 / threads=20 / lookahead_threads=3 / sliced_threads=0 / nr=0 / decimate=1 / interlaced=0 / bluray_compat=0 / constrained_intra=0 / bframes=5 / b_pyramid=2 / b_adapt=2 / b_bias=0 / direct=3 / weightb=1 / open_gop=0 / weightp=2 / keyint=250 / keyint_min=25 / scenecut=40 / intra_refresh=0 / rc_lookahead=60 / rc=crf / mbtree=1 / crf=22.0 / qcomp=0.60 / qpmin=0 / qpmax=69 / qpstep=4 / ip_ratio=1.40 / aq=1:1.00
Language                         : English
Default                          : Yes
Forced                           : No
Matrix coefficients              : BT.709-5, BT.1361, IEC 61966-2-4 709, SMPTE RP177

Audio
ID                               : 2
Format                           : AC-3
Format/Info                      : Audio Coding 3
Mode extension                   : CM (complete main)
Codec ID                         : A_AC3
Duration                         : 43mn 26s
Bit rate mode                    : Constant
Bit rate                         : 384 Kbps
Channel(s)                       : 2 channels
Channel positions                : Front: L R
Sampling rate                    : 48.0 KHz
Bit depth                        : 16 bits
Compression mode                 : Lossy
Stream size                      : 119 MiB (6%)
Default                          : Yes
Forced                           : No
